<svg xmlns="http://www.w3.org/2000/svg" xmlns:xlink="http://www.w3.org/1999/xlink" width="48" height="48" id="game">
  <defs>
    <linearGradient xlink:href="#a" id="b" x1="949.87" x2="974.39" y1="518.014" y2="544.657" gradientTransform="translate(-1059.353 1064.388)scale(1.53785)" gradientUnits="userSpaceOnUse"></linearGradient>
    <linearGradient id="a">
      <stop offset="0" stop-color="#24f7bc"></stop>
      <stop offset="1" stop-color="#24c4fc"></stop>
    </linearGradient>
  </defs>
  <g transform="translate(-395 -1857.407)">
    <rect width="48" height="48" x="395" y="1857.408" fill="url(#b)" rx="10.144" ry="10.144"></rect>
    <path fill="#fff" d="M419 1864.407c-1.663 0-3 1.338-3 3a2.998 2.998 0 0 0 2.875 3h.25a2.998 2.998 0 0 0 2.875-3c0-1.662-1.337-3-3-3zm1.156 1.47.688.687-2 2-.344.375-.344-.375-1-1 .688-.688.656.656 1.656-1.656zm-1.656 5.468v1.562c0 .262.238.5.5.5h2c.373 0 .593.105.75.282.157.177.25.425.25.687 0 .263-.093.542-.25.719-.157.177-.377.281-.75.281h-4c-.623 0-1.16.273-1.5.656-.34.384-.5.86-.5 1.344 0 .485.16.992.5 1.375.34.384.877.625 1.5.625h1.5v.969h1v-1.469a.52.52 0 0 0-.5-.5h-2c-.373 0-.593-.135-.75-.312a1.04 1.04 0 0 1-.25-.688c0-.262.093-.51.25-.687.157-.177.377-.313.75-.313h4c.623 0 1.16-.241 1.5-.625.34-.383.5-.89.5-1.375 0-.484-.16-.96-.5-1.344-.34-.383-.877-.625-1.5-.625h-1.5v-1.062h-1zm-8.031 10c-3.346 0-6.469 3.148-6.469 6.531 0 3.383 3.123 6.532 6.469 6.531 2.63 0 5.215-1.837 6.094-4.343a.514.514 0 0 1 .468-.344h3.938a.51.51 0 0 1 .469.344c.878 2.506 3.464 4.343 6.093 4.343 3.346 0 6.469-3.148 6.469-6.53 0-3.384-3.123-6.532-6.469-6.532-.12 0-.224.02-.344.03-.042 0-.084-.015-.125-.03H410.97a.492.492 0 0 1-.156.03c-.12-.01-.224-.03-.344-.03zm17.094 1.656c.96 0 1.75.79 1.75 1.75 0 .961-.79 1.75-1.75 1.75s-1.75-.789-1.75-1.75c0-.96.79-1.75 1.75-1.75zm0 1a.743.743 0 0 0-.75.75c0 .425.334.75.75.75.415 0 .75-.325.75-.75a.743.743 0 0 0-.75-.75zm-17.47.219a.52.52 0 0 1 .5.531v2.625h2.594c.265 0 .5.236.5.5a.514.514 0 0 1-.5.5h-2.593v2.625a.513.513 0 0 1-.5.5.514.514 0 0 1-.5-.5v-2.625H407a.52.52 0 0 1-.531-.469.52.52 0 0 1 .469-.53H409.594v-2.626a.516.516 0 0 1 .375-.5.49.49 0 0 1 .125-.03zm6.688 1.656H418c.264 0 .5.236.5.5a.514.514 0 0 1-.5.5h-1c-.262.057-.536-.144-.594-.406a.505.505 0 0 1 .375-.594zm3 0H421c.264 0 .5.236.5.5a.514.514 0 0 1-.5.5h-1c-.262.057-.568-.144-.625-.406-.057-.262.144-.537.406-.594zm4.688.25c.96 0 1.75.79 1.75 1.75 0 .961-.79 1.75-1.75 1.75s-1.75-.789-1.75-1.75c0-.96.79-1.75 1.75-1.75zm6.187 0c.96 0 1.75.79 1.75 1.75 0 .961-.79 1.75-1.75 1.75s-1.75-.789-1.75-1.75c0-.96.79-1.75 1.75-1.75zm-6.187 1a.743.743 0 0 0-.75.75c0 .425.334.75.75.75.415 0 .75-.325.75-.75a.743.743 0 0 0-.75-.75zm6.187 0a.743.743 0 0 0-.75.75c0 .425.335.75.75.75.416 0 .75-.325.75-.75a.743.743 0 0 0-.75-.75zm-3.094 2.125c.96 0 1.75.79 1.75 1.75 0 .961-.79 1.75-1.75 1.75s-1.75-.789-1.75-1.75c0-.96.79-1.75 1.75-1.75zm0 1a.743.743 0 0 0-.75.75c0 .425.335.75.75.75.416 0 .75-.325.75-.75a.743.743 0 0 0-.75-.75z" color="#000" font-family="Sans" font-weight="400" overflow="visible" style="line-height:normal;-inkscape-font-specification:Sans;text-indent:0;text-align:start;text-decoration-line:none;text-transform:none;block-progression:tb;marker:none"></path>
  </g>
</svg>
